<?xml version="1.0" encoding="utf-8"?>
<!-- Generator: Adobe Illustrator 28.0.0, SVG Export Plug-In . SVG Version: 6.00 Build 0)  -->
<svg version="1.1" id="Layer_1" xmlns="http://www.w3.org/2000/svg" xmlns:xlink="http://www.w3.org/1999/xlink" x="0px" y="0px"
	 viewBox="0 0 1280 1024" style="enable-background:new 0 0 1280 1024;" xml:space="preserve">
<style type="text/css">
	.st0{fill-rule:evenodd;clip-rule:evenodd;fill:#FBD500;}
</style>
<g>
	<path class="st0" d="M567.53,185.27C457.7,200.09,402.04,324,466.29,410.65c7.48,10.08,7.34,9.3,2.42,14.02
		c-9.22,8.84-24.36,31.01-32.7,47.87c-14.6,29.53-24.11,67.14-27.64,109.35c-2.01,24.08-5.53,32.99-21.28,53.81
		c-25.98,34.35-67.97,60.54-107.5,67.04c-5.48,0.9-13.63,2.27-18.12,3.05l-8.16,1.41l-0.32,8.62c-0.18,4.74,0.18,9.6,0.8,10.81
		c0.62,1.21,2.52,6.12,4.23,10.91c9.8,27.42,19.11,53.05,31.03,85.44l13.42,36.46l3.88,0.33c8.37,0.71,56.74-12.67,80.84-22.37
		C442.82,815,481,785.72,519.51,735.92c3.84-4.97,7.75-9.98,8.68-11.14c1.94-2.4,2.88-2.04,18.98,7.12
		c47.23,26.9,82.56,62.4,103.02,103.49c6.63,13.33,10.76,19.56,13.26,20.05c2.45,0.47,8.48-2.67,33.93-17.71
		c32.74-19.35,52.16-30.8,68.57-40.43c8.38-4.92,16.7-10.17,18.49-11.66c4.04-3.38,4.1-3.18-9.25-30.83
		c-28.52-59.06-60.71-102.29-107.47-144.33c-7.33-6.59-13.33-12.35-13.33-12.8c0-0.44,2.08-1.32,4.63-1.95
		c25.93-6.43,34.27-8.99,55.78-17.07c15.18-5.7,58.1-27.83,63.94-32.97c2.71-2.38,2.4-4.85-1.78-14.26
		c-5.25-11.82-30.58-70.39-39.36-91.02c-10.22-24.02-8.38-22.92-23.37-14.02c-13.56,8.05-34.86,17.04-36.5,15.4
		c-0.26-0.26,2.74-3.07,6.66-6.26c11.43-9.27,23.51-23.98,32.41-39.45c3.16-5.49,10.52-22.15,10.52-23.8c0-0.56-8.5-0.99-19.52-0.99
		c-18.77,0-19.54,0.09-20.23,2.25c-1.64,5.18-14.03,21.85-21.54,28.98c-62.29,59.17-164.79,32.12-187.06-49.35
		c-3.17-11.59-3.46-38.66-0.53-49.36c5.92-21.63,14.83-37.02,29.54-50.99c55.88-53.08,147.41-37.41,179.7,30.77l4.94,10.43h18.98
		c10.83,0,18.98-0.43,18.98-1c0-2.68-7.31-21.31-11.74-29.93C691.46,209.87,627.8,177.14,567.53,185.27 M879.9,288.36
		c-0.86,0.86-1.31,5.49-1.31,13.61c0,6.76-0.18,12.3-0.41,12.3c-0.22,0-2.67-1.26-5.43-2.81c-24.56-13.73-47.34,20.95-26.67,40.59
		c8.86,8.42,16.08,8.54,31.69,0.56c0.45-0.23,0.82,0.59,0.82,1.83c0,3.21,5.24,4.43,7.24,1.7c2.11-2.89,2.07-64.37-0.05-67.16
		C884.11,286.74,881.76,286.5,879.9,288.36 M582.78,291.42c-1.4,1.4-2.02,59.87-0.67,63.39c0.97,2.53,44.78,2.61,45.75,0.08
		c1.61-4.2-1.27-4.88-20.42-4.88H589v-23h17.15c17.37,0,20.32-0.76,18.76-4.79c-0.5-1.3-3.79-1.65-17.76-1.89l-17.14-0.3v-22.57
		l19-0.54l19-0.54V291l-22.09-0.29c-16.04-0.22-22.15,0.06-23.13,1.03 M656.27,311.33c-6.25,3.28-7.27,3.27-7.27-0.08
		c0-3.24-6.49-2.79-6.64,0.45c-0.54,12.21-0.83,62.01-0.38,64.76c0.51,3.06,1.02,3.54,3.8,3.54H649v-13.61
		c0-14.56,0.25-15.11,5.27-11.58c13.03,9.14,31.73,1.22,35.06-14.86C693.91,317.94,674.93,301.51,656.27,311.33 M744.83,308.86
		c-18.82,3.9-25.53,28.45-11.49,42.03c6.81,6.59,18.13,9.62,25.21,6.76c8.01-3.24,10.2-4.77,9.89-6.93
		c-0.36-2.5-3.01-2.64-10.36-0.53c-7.28,2.09-13.88,0.59-19.2-4.38c-4.47-4.17-4.49-4.22-4.49-12.16c0-9.25,2.25-13.54,8.71-16.6
		c4.92-2.34,13.59-2.41,18.1-0.16c4.12,2.06,7.48,1.34,7.48-1.59C768.66,310.61,754.65,306.82,744.83,308.86 M797.34,308.77
		c-15.27,2.39-23.48,20.92-16.14,36.44c8.38,17.72,35.13,17.72,43.51,0C834.25,325.03,819.44,305.31,797.34,308.77 M705.17,309.54
		c-0.4,0.4-0.73,11.14-0.73,23.87c0,22.37,0.08,23.17,2.23,23.85c4.93,1.57,5.39-0.43,5.39-23.46c0-11.85-0.3-22.32-0.66-23.27
		C710.75,308.83,706.56,308.16,705.17,309.54 M903.17,311.54c-1.4,3.69-1.41,24.68-0.01,32.05c2.97,15.65,19.31,20.3,31.26,8.89
		c3.05-2.91,3.58-2.88,3.58,0.21c0,4.74,5.42,7.08,7.45,3.21c1.47-2.79,1.62-42.18,0.18-44.87c-0.65-1.21-2.04-2.2-3.1-2.2
		c-3.99,0-4.53,2.14-4.53,17.96v15.35l-3.54,3.41c-5.67,5.47-12.74,7.19-18.6,4.51c-4.43-2.02-5.4-5.83-6.07-23.83
		c-0.61-16.44-0.69-16.88-3.08-17.22C904.9,308.76,903.98,309.42,903.17,311.54 M967.18,311.24c-7.48,5.77-8.42,14.7-2.13,20.22
		c3.02,2.65,12.97,6.74,16.4,6.74c3.49,0,8.16,3.8,8.16,6.63c0,6.12-8.49,8.36-20.28,5.34c-10.67-2.74-12.68,2.13-2.57,6.22
		c20.43,8.28,40.2-7.07,26.61-20.66c-1.71-1.71-5.93-3.54-11.86-5.13c-11.02-2.96-14.77-6-12.78-10.37
		c1.88-4.12,5.95-5.2,16.66-4.42c9.51,0.69,11.86-0.15,9.8-3.49C992.57,308.06,972.31,307.28,967.18,311.24 M659.96,315.89
		c-9,2.81-11.02,5.96-11.02,17.18c0,9.44,0.09,9.78,3.36,12.84c5.95,5.56,17.96,6.73,23.3,2.27c9.99-8.34,8.49-25.8-2.7-31.48
		C667.38,313.91,666.49,313.86,659.96,315.89 M798.63,315.5c-18.95,4.39-15.23,35.98,4.24,35.98c11.56,0,19.24-11.61,15.9-24.01
		c-1.91-7.09-6.31-11.01-14.19-12.63C803.68,314.65,801.01,314.95,798.63,315.5 M856.14,316.12c-11.3,4.13-13.16,24.75-2.91,32.33
		c4.82,3.57,15.27,3.21,21.22-0.74l4.55-3.01v-11.17c0-12.36-0.53-13.44-8.28-16.67C867.14,315.37,859.3,314.96,856.14,316.12
		 M816.55,408.41c0,16.14,0.09,16.87,2.18,16.87s2.18-0.73,2.18-16.87c0-16.14-0.09-16.87-2.18-16.87S816.55,392.26,816.55,408.41
		 M828.53,394.8c0,1.45,0.73,2.18,2.18,2.18c1.45,0,2.18-0.73,2.18-2.18c0-1.45-0.73-2.18-2.18-2.18
		C829.25,392.63,828.53,393.35,828.53,394.8 M769.21,401.04c-6.18,1.46-9.46,9.08-7.18,16.69c3.74,12.48,20.79,9.28,20.79-3.91
		C782.81,404.61,777.04,399.19,769.21,401.04 M796.69,401.79c-1.65,0.87-2.99,1.13-2.99,0.56c0-0.56-0.98-1.02-2.18-1.02
		c-2.05,0-2.18,0.73-2.18,11.97c0,11.17,0.14,11.97,2.13,11.97c1.93,0,2.16-0.9,2.45-9.5c0.31-9.31,0.37-9.52,3.37-10.57
		c5.45-1.91,6.7-0.02,7.06,10.66c0.28,8.51,0.52,9.41,2.45,9.41c3.03,0,3.23-18.06,0.23-21.6
		C804.45,400.63,800.31,399.87,796.69,401.79 M847.85,401.82c-1.65,0.86-2.99,1.1-2.99,0.54c0-0.56-0.98-1.02-2.18-1.02
		c-2.05,0-2.18,0.73-2.18,11.97c0,11.25,0.13,11.97,2.18,11.97c2,0,2.18-0.73,2.18-9.12c0-9.06,0.02-9.13,3.18-10.44
		c6.79-2.81,8.75-0.08,8.77,12.21c0.01,5.8,0.36,7.35,1.65,7.35c1.33,0,1.63-1.84,1.62-10.07c-0.02-11.19-0.35-12.15-4.7-13.81
		C851.53,399.94,851.44,399.95,847.85,401.82 M874.55,401.01c-7.89,1.53-10.78,14.72-4.58,20.92c4.8,4.8,17.33,4.69,17.33-0.16
		c0-1.62-0.48-1.98-1.9-1.41c-5.38,2.13-9.07,1.95-11.74-0.56c-5.23-4.92-3.77-6.49,6.03-6.49c4.79,0,8.7-0.37,8.7-0.82
		c-0.05-6.23-5.89-12.91-10.57-12.1C877.35,400.48,875.88,400.75,874.55,401.01 M828.53,413.31c0,11.25,0.13,11.97,2.18,11.97
		c2.05,0,2.18-0.73,2.18-11.97s-0.13-11.97-2.18-11.97C828.66,401.33,828.53,402.06,828.53,413.31 M875.36,404.8
		c-2.59,0.96-4.33,2.73-4.37,4.43c-0.01,0.45,2.92,0.82,6.51,0.82c6.72,0,7.52-0.53,5.17-3.45
		C880.75,404.2,878.47,403.64,875.36,404.8 M767.09,407.02c-4.04,5.76-0.76,15,5.32,15c5.51,0,8.52-11.58,4.06-15.61
		C773.63,403.83,769.12,404.13,767.09,407.02 M493.11,455.76c-26.26,28.47-38.44,62.68-44.96,126.25
		c-2.88,28.08-4.45,34.92-11.13,48.43c-24.25,49.1-66.34,85.33-120.05,103.35c-8.08,2.71-14.83,5.35-15,5.86
		c-0.3,0.91,2.45,8.86,18.2,52.42c4.22,11.67,7.67,21.39,7.68,21.59c0.04,2.75,44.62-12.3,63.64-21.48
		c41.46-20.01,67.29-42.78,104.36-92c21.93-29.11,20.29-28.77,55.21-11.22c60.74,30.53,95.18,60.78,126.87,111.46
		c1.02,1.63,1.63,1.76,3.35,0.74c1.16-0.69,14.4-8.44,29.42-17.22l27.31-15.97l-1.27-2.91c-2-4.58-16.62-30.36-22.33-39.38
		c-32.97-52.07-83.42-100.84-129.69-125.35c-10.45-5.54-18.52-10-23.56-13.04c-15.32-9.22-1.96-39.83,15.21-34.85
		c8.2,2.38,67.32,5.11,76.66,3.54c22.31-3.75,77.54-25.05,77.54-29.91c0-1.72-20.45-49.71-21.78-51.12
		c-0.49-0.52-7.41,1.27-15.49,4.01c-38.35,13.01-79.73,13.85-111.52,2.25c-7.36-2.68-8.25-3.33-9.77-7.13
		c-1.35-3.36-2.23-4.18-4.55-4.19c-11.51-0.04-42-10.32-56.57-19.08c-4.44-2.67-8.22-4.85-8.41-4.85
		C502.3,445.96,498.08,450.37,493.11,455.76"/>
</g>
</svg>
