<svg xmlns="http://www.w3.org/2000/svg" viewBox="0 0 726 693"><path fill="#282020" d="M289.204 12.104C188.296 25.722 137.159 139.56 196.186 219.17c6.869 9.264 6.745 8.545 2.22 12.884-8.467 8.118-22.385 28.491-30.045 43.978-13.418 27.13-22.152 61.686-25.391 100.468-1.849 22.128-5.084 30.311-19.549 49.438-23.87 31.563-62.445 55.619-98.771 61.596-5.032.828-12.525 2.088-16.65 2.8l-7.5 1.294-.296 7.916c-.163 4.353.167 8.824.733 9.935.566 1.112 2.315 5.621 3.888 10.021 9.004 25.195 17.555 48.742 28.507 78.5l12.328 33.5 3.564.304c7.691.656 52.132-11.643 74.276-20.556 51.125-20.577 86.207-47.478 121.586-93.229 3.528-4.563 7.118-9.17 7.979-10.238 1.778-2.206 2.65-1.878 17.435 6.543 43.394 24.715 75.857 57.328 94.648 95.084 6.095 12.244 9.884 17.974 12.179 18.417 2.255.434 7.79-2.456 31.173-16.275 30.079-17.776 47.926-28.298 63-37.145 7.7-4.519 15.344-9.34 16.986-10.714 3.712-3.104 3.768-2.918-8.5-28.325-26.2-54.258-55.777-93.982-98.736-132.609-6.738-6.058-12.25-11.348-12.25-11.756 0-.408 1.913-1.216 4.25-1.796 23.823-5.912 31.488-8.257 51.25-15.681 13.948-5.239 53.378-25.572 58.75-30.295 2.488-2.187 2.204-4.457-1.639-13.103-4.827-10.86-28.098-64.673-36.164-83.626-9.393-22.07-7.701-21.055-21.475-12.877-12.461 7.399-32.027 15.656-33.531 14.151-.238-.238 2.518-2.825 6.123-5.751 10.5-8.518 21.601-22.034 29.773-36.246 2.899-5.042 9.663-20.347 9.663-21.866 0-.514-7.807-.911-17.933-.911-17.248 0-17.957.079-18.588 2.067-1.511 4.761-12.893 20.072-19.794 26.627-57.227 54.36-151.407 29.514-171.86-45.34-2.909-10.649-3.176-35.52-.487-45.354 5.436-19.874 13.628-34.014 27.143-46.852 51.339-48.767 135.435-34.369 165.106 28.268l4.54 9.584h17.437c9.951 0 17.436-.395 17.436-.92 0-2.463-6.716-19.582-10.787-27.495-25.145-48.88-83.632-78.955-139.009-71.481M576.2 107.2c-.792.792-1.2 5.044-1.2 12.5 0 6.215-.168 11.3-.374 11.3s-2.452-1.161-4.992-2.581c-22.561-12.61-43.493 19.245-24.502 37.288 8.138 7.733 14.776 7.849 29.118.51.413-.211.75.545.75 1.681 0 2.946 4.816 4.074 6.656 1.558 1.943-2.658 1.9-59.14-.048-61.706-1.545-2.036-3.703-2.255-5.408-.55m-272.98 2.98c-1.288 1.288-1.853 55.006-.613 58.238.893 2.328 41.144 2.395 42.036.069 1.48-3.855-1.163-4.487-18.765-4.487H309v-21h15.378c15.997 0 18.718-.703 17.275-4.462-.465-1.212-3.487-1.538-16.362-1.762L309.5 136.5v-21l17.5-.5 17.5-.5v-5l-20.03-.27c-14.737-.199-20.352.052-21.25.95m67.456 17.728c-5.739 3.018-6.676 3.008-6.676-.075 0-2.974-5.967-2.566-6.1.417-.497 11.216-.763 56.968-.345 59.5.464 2.812.933 3.25 3.49 3.25H364v-12.5c0-13.38.227-13.878 4.846-10.637 11.968 8.399 29.148 1.117 32.215-13.656 4.198-20.223-13.241-35.318-30.385-26.299m81.425-1.872c-17.292 3.58-23.46 26.141-10.56 38.619 6.257 6.052 16.659 8.843 23.162 6.214 7.358-2.974 9.368-4.383 9.084-6.366-.329-2.298-2.765-2.422-9.517-.484-6.693 1.921-12.75.538-17.644-4.027-4.108-3.832-4.126-3.88-4.126-11.17 0-8.5 2.067-12.439 8.002-15.256 4.523-2.146 12.484-2.218 16.63-.15 3.787 1.889 6.868 1.233 6.868-1.463 0-4.308-12.873-7.786-21.899-5.917m48.243-.078c-14.03 2.2-21.573 19.225-14.832 33.476 7.701 16.278 32.275 16.278 39.976 0 8.771-18.54-4.839-36.66-25.144-33.476m-84.677.709c-.367.366-.667 10.236-.667 21.932 0 20.554.069 21.288 2.048 21.916 4.53 1.438 4.952-.398 4.952-21.556 0-10.887-.273-20.507-.607-21.377-.604-1.573-4.453-2.188-5.726-.915m182.335 1.829c-1.289 3.39-1.297 22.674-.013 29.448 2.728 14.38 17.744 18.65 28.719 8.166 2.802-2.677 3.292-2.649 3.292.19 0 4.357 4.983 6.504 6.847 2.95 1.346-2.566 1.49-38.751.165-41.227-.595-1.113-1.877-2.023-2.847-2.023-3.668 0-4.165 1.97-4.165 16.504v14.104l-3.25 3.134c-5.209 5.025-11.707 6.602-17.093 4.148-4.071-1.855-4.962-5.352-5.579-21.89-.563-15.109-.635-15.508-2.826-15.819-1.662-.236-2.51.368-3.25 2.315m58.383-.269c-6.873 5.304-7.735 13.502-1.954 18.578 2.775 2.437 11.918 6.195 15.072 6.195 3.205 0 7.497 3.487 7.497 6.091 0 5.627-7.802 7.682-18.629 4.908-9.805-2.513-11.647 1.953-2.358 5.717 18.772 7.605 36.932-6.498 24.446-18.984-1.574-1.574-5.45-3.252-10.897-4.715-10.129-2.722-13.568-5.513-11.739-9.527 1.723-3.782 5.468-4.776 15.31-4.062 8.733.633 10.9-.138 9.004-3.206-2.42-3.916-21.036-4.635-25.752-.995m-282.258 4.271c-8.269 2.579-10.127 5.476-10.127 15.788 0 8.67.084 8.99 3.091 11.799 5.468 5.108 16.499 6.182 21.409 2.084 9.181-7.661 7.802-23.705-2.485-28.919-5.071-2.571-5.892-2.622-11.888-.752m127.406-.357c-17.407 4.029-13.99 33.059 3.892 33.059 10.617 0 17.681-10.665 14.612-22.061-1.753-6.51-5.801-10.114-13.037-11.607-.825-.17-3.285.104-5.467.609m52.467.565c-10.384 3.796-12.092 22.741-2.677 29.706 4.431 3.277 14.029 2.945 19.5-.676l4.177-2.764v-10.264c0-11.354-.491-12.344-7.607-15.317-3.294-1.376-10.494-1.745-13.393-.685M518 217.5c0 14.833.086 15.5 2 15.5s2-.667 2-15.5-.086-15.5-2-15.5-2 .667-2 15.5m11-12.5c0 1.333.667 2 2 2s2-.667 2-2-.667-2-2-2-2 .667-2 2m-54.5 5.727c-5.679 1.342-8.694 8.346-6.6 15.333 3.436 11.469 19.1 8.525 19.1-3.59 0-8.46-5.303-13.442-12.5-11.743m25.25.695c-1.512.803-2.75 1.036-2.75.519 0-.518-.9-.941-2-.941-1.879 0-2 .667-2 11 0 10.261.132 11 1.961 11 1.776 0 1.988-.823 2.25-8.729.283-8.556.344-8.747 3.092-9.711 5.007-1.756 6.158-.018 6.486 9.796.261 7.822.475 8.644 2.25 8.644 2.787 0 2.964-16.593.211-19.847-2.37-2.8-6.177-3.494-9.5-1.731m47 .025c-1.513.789-2.75 1.011-2.75.494 0-.518-.9-.941-2-.941-1.879 0-2 .667-2 11s.121 11 2 11c1.841 0 2-.667 2-8.379 0-8.32.021-8.387 2.926-9.59 6.236-2.583 8.037-.075 8.06 11.219.011 5.327.33 6.75 1.514 6.75 1.226 0 1.497-1.688 1.485-9.25-.017-10.285-.317-11.165-4.32-12.687-3.533-1.343-3.613-1.339-6.915.384m24.534-.746c-7.247 1.403-9.901 13.528-4.207 19.222 4.413 4.413 15.923 4.307 15.923-.147 0-1.492-.438-1.817-1.75-1.298-4.939 1.953-8.335 1.791-10.789-.515-4.808-4.517-3.464-5.963 5.539-5.963 4.4 0 7.997-.338 7.994-.75-.042-5.725-5.407-11.863-9.712-11.114-.43.075-1.779.329-2.998.565M529 222c0 10.333.121 11 2 11s2-.667 2-11-.121-11-2-11-2 .667-2 11m43.028-7.819c-2.384.886-3.981 2.505-4.013 4.069-.008.412 2.685.75 5.985.75 6.171 0 6.908-.491 4.75-3.169-1.77-2.197-3.865-2.711-6.722-1.65m-99.471 2.042c-3.709 5.294-.7 13.777 4.886 13.777 5.063 0 7.827-10.636 3.728-14.345-2.61-2.362-6.753-2.089-8.614.568m-251.724 44.78c-24.126 26.16-35.317 57.584-41.312 115.997-2.647 25.797-4.092 32.086-10.224 44.5-22.283 45.11-60.949 78.398-110.293 94.95-7.423 2.49-13.625 4.914-13.783 5.387-.28.839 2.255 8.141 16.721 48.163 3.876 10.725 7.05 19.652 7.053 19.838.039 2.524 40.997-11.301 58.473-19.737 38.094-18.388 61.82-39.303 95.884-84.522 20.145-26.741 18.64-26.435 50.726-10.311 55.81 28.046 87.452 55.843 116.566 102.402.936 1.496 1.498 1.62 3.079.679 1.064-.634 13.226-7.753 27.027-15.822l25.093-14.67-1.171-2.678c-1.841-4.208-15.274-27.893-20.52-36.179-30.288-47.844-76.641-92.646-119.152-115.166-9.604-5.088-17.019-9.19-21.649-11.977-14.075-8.472-1.799-36.595 13.975-32.019 7.534 2.186 61.847 4.691 70.432 3.248C388.255 349.642 439 330.067 439 325.604c0-1.582-18.785-45.673-20.011-46.968-.452-.479-6.809 1.168-14.234 3.687-35.233 11.953-73.256 12.721-102.462 2.069-6.76-2.466-7.577-3.062-8.974-6.552-1.237-3.091-2.051-3.842-4.178-3.849-10.576-.036-38.587-9.485-51.976-17.532-4.08-2.453-7.556-4.459-7.724-4.459-.168 0-4.042 4.051-8.608 9.003" fill-rule="evenodd"/></svg>