<svg xmlns="http://www.w3.org/2000/svg" viewBox="0 0 726 693"><path fill="#fbfbfb" stroke="#fbfbfb" d="M287 29.986c-26.493 5.726-52.815 22.285-67.581 42.513-1.605 2.2-3.594 4.756-4.419 5.681-3.035 3.402-12.032 22.471-14.306 30.32a860.66 860.66 0 0 1-2.821 9.5c-.968 3.173-1.373 10.399-1.373 24.5s.405 21.327 1.373 24.5a860.66 860.66 0 0 1 2.821 9.5c2.973 10.261 11.807 27.901 16.49 32.928 2.531 2.716 2.482 2.815-3.781 7.647-8.152 6.289-23.628 23.051-30.861 33.425-22.423 32.159-34.965 70.81-40.076 123.5-2.055 21.185-2.691 23.868-7.949 33.5-15.523 28.44-38.88 50.309-70.017 65.558-19.053 9.33-27.108 11.864-47.61 14.976C-1.794 490.87 0 489.566 0 500.313c0 8.263.395 10.224 3.968 19.682 2.182 5.778 11.416 30.98 20.519 56.005 21.43 58.91 20.379 56.429 24.056 56.792 1.626.161 12.182-1.948 23.457-4.687 69.411-16.86 120.753-46.384 158.284-91.022 3.969-4.721 7.717-9.033 8.33-9.583.612-.55 3.061-3.7 5.441-7 5.641-7.821 10.009-12.5 11.67-12.5 1.751 0 12.462 5.408 18.775 9.48 2.75 1.773 9 5.796 13.888 8.94 31.818 20.46 59.562 50.603 75.138 81.638 12.221 24.348 11.709 24.204 35.474 9.974a5088.723 5088.723 0 0 1 24-14.233c7.975-4.7 20.8-12.272 28.5-16.827 7.7-4.554 15.808-9.292 18.017-10.529 4.478-2.505 20.757-12.422 21.386-13.027 3.641-3.507-20.783-52.907-41.243-83.416-19.741-29.437-40.42-53.008-70.16-79.973-9.562-8.669-9.564-8.675-3.279-10.419 38.907-10.798 45.958-13.383 73.779-27.043 20.003-9.822 33.497-17.757 35.013-20.59 1.123-2.098-.416-7.809-4.305-15.975-1.44-3.025-7.843-17.65-14.229-32.5-6.385-14.85-12.48-28.83-13.544-31.066-1.064-2.236-1.935-4.342-1.935-4.68 0-.338-1.284-3.458-2.852-6.934-1.569-3.476-3.831-8.808-5.027-11.849-5.214-13.26-6.596-13.94-16.19-7.966-14.136 8.803-27.215 14.153-44.431 18.172-9.385 2.191-36.68 3.632-32.5 1.716 14.601-6.693 18.584-8.798 25.5-13.472 22.578-15.261 43.801-44.016 33.379-45.225-2.298-.266-3.346.777-8.5 8.462-21.806 32.513-55.208 49.593-93.879 48.004-12.754-.524-16.672-1.154-29-4.662-5.06-1.44-25.687-11.601-28.149-13.866-1.018-.937-2.801-2.363-3.962-3.169-6.365-4.417-19.657-18.504-24.103-25.543-4.172-6.608-7.383-13.104-11.329-22.922-1.101-2.739-3.546-11.855-4.962-18.5-1.348-6.324-.81-31.938.818-39 1.975-8.566 3.216-13.075 4.069-14.784.471-.944 2.603-5.518 4.737-10.164 31.448-68.464 129.854-80.962 177.625-22.561a4598.91 4598.91 0 0 0 6.562 8.009c.906 1.1 3.952 6.478 6.767 11.952 5.533 10.755 7.355 12.713 10.177 10.936 2.918-1.838 2.58-3.936-2.197-13.609-15.333-31.047-45.657-54.027-80.761-61.203-10.885-2.225-34.581-2.013-45.792.41m288.75 76.094c-1.5.874-1.75 2.601-1.75 12.085v11.065l-2.672-1.751c-22.583-14.797-46.396 17.345-28.396 38.326 6.729 7.843 20.919 9.525 28.309 3.355 1.558-1.301 1.959-1.176 3.822 1.193 2.541 3.231 5.304 3.389 7.38.424 2.347-3.35 2.334-61.857-.014-64.206-1.795-1.795-4.144-1.967-6.679-.491M304 107.729c-2.812 1.07-2.969 2.788-2.985 32.486-.014 28.363.073 29.762 1.919 30.75 1.144.612 9.908 1.035 21.444 1.035 18.976 0 19.551-.06 21.052-2.204 1.316-1.878 1.343-2.505.186-4.25-1.262-1.902-2.506-2.065-17.694-2.322-11.454-.193-16.56-.638-17.085-1.487-1.28-2.072-.866-16.73.474-16.789.654-.029 6.814-.024 13.689.011 13.342.067 17.296-.931 17.756-4.484.582-4.495-.82-4.947-16.967-5.475l-15.289-.5.095-8.5.095-8.5 16.614-.5c15.119-.455 16.751-.68 18.124-2.5 1.953-2.589 1.941-2.727-.467-5.311-1.963-2.107-2.738-2.186-20.75-2.11-10.291.043-19.386.336-20.211.65m70.085 16.889c-2.428.863-5.051 2.206-5.83 2.984-1.592 1.592-3.255 1.008-3.255-1.142 0-2.329-4.792-2.958-7.04-.924-1.867 1.69-1.96 3.258-1.96 33.048 0 33.417.145 34.416 5 34.416 4.105 0 5-2.521 5-14.088v-10.946l4.967 2.517c16.352 8.287 33.516-5.366 31.687-25.205-1.413-15.33-15.302-25.374-28.569-20.66m78.193-.08c-12.065 3.25-17.608 9.984-18.123 22.018-.526 12.313 3.282 19.14 13.329 23.893 10.45 4.944 27.516 1.541 27.516-5.486 0-4.069-2.782-5.37-7.377-3.45-8.308 3.471-19.712.976-22.389-4.899-6.864-15.065 4.723-27.443 20.717-22.13 6.311 2.096 9.049 1.359 9.049-2.436 0-3.382-2.463-5.217-10.009-7.458-6.275-1.863-5.992-1.862-12.713-.052m47.222-.025c-2.75.769-5.275 1.419-5.61 1.443-.336.024-2.201 1.544-4.145 3.378-13.038 12.296-9.787 35.004 5.98 41.762 12.053 5.167 29.4-1.818 31.839-12.821.339-1.526 1.057-4.229 1.597-6.005 1.732-5.702-1.578-16.455-6.649-21.599-6.012-6.098-14.811-8.453-23.012-6.158m-84.628 1.138c-1.455 1.751-2.604 35.633-1.421 41.938.819 4.368 4.773 6.423 7.539 3.92 3.053-2.763 3.121-44.844.076-46.474-2.749-1.471-4.613-1.285-6.194.616m183.879-.962c-2.607.682-2.965 3.611-2.564 20.985.411 17.836 1.531 21.192 8.432 25.264 6.327 3.733 17.232 2.068 22.777-3.477 1.472-1.472 1.604-1.446 1.604.313 0 4.368 5.456 6.589 8.345 3.397 2.944-3.253 2.443-43.505-.568-45.614-2.86-2.004-3.369-1.965-5.777.443-1.807 1.807-2 3.333-2 15.804v13.804l-3.25 3.076c-5.656 5.354-10.371 6.653-15.066 4.153-4.303-2.292-4.619-3.652-4.652-20.03-.031-15.066-.121-15.756-2.255-17.25-1.222-.856-2.459-1.505-2.75-1.441-.29.064-1.314.322-2.276.573m60.644.328c-9.52 2.96-13.46 14.423-7.348 21.383 2.855 3.253 5.652 4.617 15.453 7.54 6.212 1.852 8.5 3.244 8.5 5.172 0 4.68-8.921 6.263-18.198 3.229-5.667-1.854-8.08-1.137-8.629 2.566-.695 4.686 7.14 8.104 18.515 8.077 13.387-.033 19.927-7.651 16.742-19.503-.993-3.695-9.397-8.314-18.095-9.946-4.918-.923-7.335-2.62-7.335-5.153 0-4.271 6.667-6.231 15.418-4.532 8.894 1.726 13.606-3.718 6.428-7.429-3.736-1.932-16.967-2.798-21.451-1.404m-285.926 9.045c-6.286 1.829-7.469 4.042-7.469 13.977 0 11.787 2.868 14.961 13.518 14.961 9.022 0 13.485-4.903 13.478-14.807-.007-11.647-8.052-17.469-19.527-14.131m126.031.286c-10.773 4.951-10.891 22.847-.184 27.709 5.137 2.332 6.567 2.374 11.645.342 9.602-3.842 11.401-20.355 2.903-26.663-3.36-2.494-10.464-3.18-14.364-1.388m56.143-.342c-3.822 1.175-6.509 3.738-8.226 7.846-1.637 3.918-1.881 10.743-.417 11.648.55.34 1 1.451 1 2.47 0 5.257 9.681 8.933 17.404 6.609 7.95-2.393 8.596-3.461 8.596-14.22v-9.331l-3.75-2.424c-4.3-2.781-10.453-3.875-14.607-2.598M518 217.5c0 14.833.086 15.5 2 15.5s2-.667 2-15.5-.086-15.5-2-15.5-2 .667-2 15.5m10-11.934c0 3.51 5.317 3.221 5.82-.316.271-1.914-.139-2.25-2.75-2.25-2.629 0-3.07.369-3.07 2.566m-58.077 7.357c-2.851 2.852-3.384 4.938-2.935 11.506.856 12.532 18.106 12.547 20.456.017 2.131-11.359-9.823-19.221-17.521-11.523m22.744-2.256c-.367.366-.667 5.541-.667 11.5V233h2.5c2.453 0 2.5-.147 2.5-7.8 0-8.731.805-10.2 5.593-10.2 3.96 0 4.407 1.073 4.407 10.582 0 7.336.029 7.418 2.619 7.418h2.62l-.413-9.443c-.324-7.407-.815-9.887-2.275-11.5-2.042-2.257-7.354-2.768-10.617-1.022-1.333.714-1.934.714-1.934 0 0-1.144-3.279-1.423-4.333-.368M529 221.5c0 10.833.116 11.5 2 11.5s2-.667 2-11.5-.116-11.5-2-11.5-2 .667-2 11.5m11 0c0 10.833.116 11.5 2 11.5 1.833 0 2-.667 2-7.965 0-8.796 1.174-10.496 6.799-9.847 2.679.31 2.703.382 2.99 9.062.282 8.551.345 8.75 2.75 8.75 2.43 0 2.461-.113 2.461-8.865 0-10.904-1.8-14.135-7.873-14.135-2.05 0-4.323.563-5.052 1.25-1.06 1-1.417 1-1.783 0-.252-.687-1.321-1.25-2.375-1.25-1.778 0-1.917.833-1.917 11.5m27.659-9.446c-5.125 4.031-5.654 13.678-1.006 18.326 4.89 4.89 17.347 4.153 17.347-1.026 0-2.072-.338-2.419-1.75-1.799-5.796 2.546-12.534 1.29-13.531-2.523-.501-1.916-.081-2.032 7.375-2.032H584v-3.066c0-8.69-9.492-13.268-16.341-7.88m-94.004 3.775c-1.951 2.156-2.256 10.17-.455 11.971 1.613 1.613 6.286 1.524 7.672-.145 5.379-6.482-1.641-17.987-7.217-11.826m96.156.36L567.5 218.5l5.361.306c6.019.344 7.044-.141 5.503-2.604-1.666-2.662-5.898-2.668-8.553-.013" fill-rule="evenodd"/><path fill="#4f5151" stroke="#4f5151" d="M299.5 29.631c-5.907.637-19.555 3.32-23 4.523-13.22 4.616-28.413 12.751-37 19.813-9.586 7.883-26.5 27.558-26.5 30.827 0 .571-.35 1.189-.778 1.373-1.384.592-7.892 15.13-9.999 22.333-4.115 14.074-6.901 34.587-5.276 38.859.579 1.524 1.054 5.104 1.055 7.956.001 4.758 4.899 25.572 6.943 29.507.479.923 2.15 4.359 3.713 7.636 1.563 3.276 3.201 6.426 3.639 7 2.15 2.812 7.703 11.809 7.703 12.482 0 .421-2.588 2.798-5.75 5.283-40.158 31.556-65.642 87.636-71.241 156.777-1.534 18.941-2.562 23.334-7.724 33-16.519 30.929-42.931 54.623-78.285 70.227-15.058 6.646-20.541 8.206-39.82 11.331L0 491.343v7.96c0 7.972 4.397 22.082 16.734 53.697 1.395 3.575 4.21 11.225 6.255 17 4.481 12.651 14.979 41.443 19.143 52.5 4.541 12.058 2.332 11.652 28.868 5.316 78.184-18.669 128.316-50.43 175.446-111.156 8.41-10.837 7.746-10.594 16.698-6.095 43.193 21.706 80.957 58.291 101.237 98.076C371.392 622.396 375.346 628 378.04 628c2.368 0 8.826-3.17 17.96-8.816 3.575-2.21 15.95-9.55 27.5-16.311 67.313-39.4 67.5-39.518 67.5-42.396 0-1.272-3.244-9.213-7.209-17.645C456.68 485.178 426.22 443.117 383.976 405a33528.73 33528.73 0 0 1-12.412-11.203c-3.702-3.345-4.315-2.937 9.436-6.274 31.386-7.614 60.391-19.543 92.565-38.071 14.105-8.123 13.824-6.275 4.316-28.392-18.214-42.371-33.098-76.829-34.368-79.56-.766-1.65-2.362-5.33-3.546-8.178-3.159-7.603-2.764-7.645-19.452 2.058-20.941 12.177-60.336 20.983-74.515 16.658-2.76-.842-3.066-.619 4.5-3.281 4.709-1.657 17.964-8.165 18.333-9.002.184-.415.77-.755 1.304-.755 5.127 0 27.999-22.356 36.734-35.905 4.916-7.627 5.066-10.095.61-10.095-.195 0-2.827 3.793-5.849 8.428-7.135 10.947-20.88 24.713-31.83 31.879-4.783 3.131-8.933 5.693-9.222 5.693-.289 0-2.9 1.108-5.803 2.461-24.106 11.242-56.315 12.159-82.557 2.35-13.677-5.112-27.184-13.992-38.509-25.317-12.222-12.222-22.028-28.554-27.113-45.156-5.411-17.667-5.415-44.442-.009-61.838 10.115-32.549 38.067-61.747 67.911-70.938 3.3-1.016 6.675-2.086 7.5-2.377 14.14-4.997 45.348-5.139 57.5-.261 1.1.442 4.475 1.601 7.5 2.578 5.05 1.629 20.831 9.143 22 10.475.275.313 1.772 1.379 3.327 2.369 13.259 8.444 29.321 27.428 36.704 43.38 2.942 6.354 6.969 8.92 6.969 4.439 0-9.892-22.521-39.173-39.5-51.354-20.294-14.561-52.008-22.872-77-20.18m276.167 77.036c-.367.366-.667 5.766-.667 12 0 12.232-.249 12.688-5.01 9.168-4.032-2.982-12.632-3.625-18.498-1.385-18.543 7.081-18.377 36.304.251 44.087 6.482 2.709 18.118.733 20.748-3.523 1.045-1.691 2.351-1.141 2.689 1.134.513 3.446 3.318 4.617 5.761 2.405 1.992-1.802 2.059-2.847 2.059-32.008 0-22.113-.32-30.465-1.2-31.345-1.294-1.294-5.047-1.62-6.133-.533M303.75 109.08c-2.548 1.484-2.71 60.338-.168 61.313 2.433.934 38.74.689 40.255-.271.736-.467 1.186-1.922 1-3.235l-.337-2.387-17.5-.5-17.5-.5v-20l16-.5 16-.5.313-2.715c.405-3.514-.593-3.734-18.313-4.042l-14-.243v-19l17.5-.584c9.625-.32 17.613-.658 17.75-.75 1.121-.746-.13-5.299-1.684-6.131-2.536-1.357-36.977-1.318-39.316.045m54.398 17.242c-2.142 2.58-1.107 63.671 1.102 65.064 4.091 2.58 5.227-.126 5.53-13.174l.28-12.073 5.572 2.93c3.44 1.81 7.086 2.931 9.531 2.931 4.623 0 14.404-4.322 15.835-6.997.544-1.016 1.585-2.445 2.313-3.175 3.677-3.689 4.925-16.626 2.226-23.085-5.16-12.35-19.313-17.563-30.43-11.208-2.417 1.382-4.442 2.389-4.5 2.238-1.672-4.283-5.355-5.987-7.459-3.451m56.887.612c-2.088 3.902-1.326 41.493.882 43.491 1.529 1.384 2.338 1.509 4 .62 2.225-1.191 2.183-.601 2.424-34.2.065-9.108-.958-11.845-4.428-11.845-1.014 0-2.308.87-2.878 1.934m33.965-.625c-4.75 1.5-12.198 9.361-13.75 14.511-4.851 16.099 6.591 31.292 23.438 31.121 7.691-.078 14.683-3.349 15.116-7.071.392-3.366-1.999-4.338-5.818-2.363-4.634 2.396-14.979 1.973-19.065-.781-11.029-7.433-7.328-26.871 5.579-29.292 4.073-.764 12.184.246 13.036 1.624.32.518 1.935.942 3.589.942 2.691 0 2.975-.289 2.691-2.75-.675-5.867-14.539-9.186-24.816-5.941m46.395.599c-17.174 7.8-16.892 35.667.438 43.207C511.895 177.103 528 166.281 528 148.5c0-17.946-16.529-28.892-32.605-21.592m103.355-.828c-2.812 1.638-2.588 31.159.282 37.265 4.623 9.835 20.865 11.714 27.907 3.228 1.871-2.254 3.061-1.942 3.061.805 0 3.508 2.455 5.191 5.53 3.79l2.47-1.125-.015-20.772c-.016-20.874-.227-22.539-2.985-23.486-4.382-1.504-5 .495-5 16.177v14.892l-3.75 3.098c-6.512 5.379-14.994 6.197-18.949 1.829-1.531-1.691-1.876-4.449-2.301-18.424-.399-13.131-.802-16.625-2-17.381-1.851-1.167-2.077-1.161-4.25.104m60.712-.016c-11.303 3.287-12.417 19.692-1.613 23.778 1.458.552 5.801 1.978 9.651 3.171 7.853 2.432 9.5 3.464 9.5 5.954 0 4.516-7.013 6.741-15.679 4.974-9.865-2.01-10.821-1.879-10.821 1.493 0 3.835 6.794 6.463 16.864 6.524 14.259.087 22.193-10.294 15.038-19.676-2.832-3.713-4.417-4.506-14.88-7.451-8.059-2.269-9.522-3.236-9.522-6.298 0-5.188 7.509-7.662 17.045-5.617 4.519.969 5.56.908 6.873-.406 4.895-4.895-11.553-9.617-22.456-6.446M374 132.682c-.825.348-3.187 1.692-5.25 2.988l-3.75 2.355v9.813c0 10.5.631 11.919 6.684 15.037 3.152 1.623 11.917 1.382 15.41-.424 8.747-4.523 9.59-19.818 1.509-27.368-2.627-2.454-11.151-3.855-14.603-2.401m125.5.223c-10.557 4.683-11.743 23.303-1.894 29.756 3.507 2.299 12.346 2.256 15.905-.077 8.4-5.503 8.981-20.131 1.092-27.501-2.817-2.631-11.318-3.857-15.103-2.178m54.5.687c-9.958 4.235-11.15 23.344-1.8 28.867 4.908 2.899 13.162 2.368 18.205-1.173l4.095-2.875.289-9.333c.329-10.609-.342-12.007-7.289-15.197-4.802-2.205-8.794-2.291-13.5-.289M518 217.5c0 14.833.086 15.5 2 15.5s2-.667 2-15.5-.086-15.5-2-15.5-2 .667-2 15.5m11-12c0 1.833.533 2.5 2 2.5s2-.667 2-2.5-.533-2.5-2-2.5-2 .667-2 2.5m-56.617 6.083c-9.244 4.561-6.26 21.42 3.843 21.706 7.27.206 10.774-3.654 10.774-11.871 0-8.956-6.937-13.623-14.617-9.835m27.664-.633c-.799.505-2.712.667-4.25.359L493 210.75v11.125c0 10.458.12 11.125 2 11.125 1.841 0 2-.667 2-8.379v-8.378l3.118-1.292c5.235-2.168 6.336-.615 6.671 9.405.261 7.822.475 8.644 2.25 8.644 1.808 0 1.96-.723 1.946-9.25-.009-5.088-.346-9.745-.75-10.35-1.932-2.893-7.407-4.209-10.188-2.45m46.176.607c-1.246.872-2.223 1.092-2.223.5 0-.581-.9-1.057-2-1.057-1.879 0-2 .667-2 11s.121 11 2 11c1.841 0 2-.667 2-8.379v-8.378l3.118-1.292c5.235-2.168 6.336-.615 6.671 9.405.282 8.439.347 8.644 2.75 8.644 2.372 0 2.461-.244 2.455-6.75-.011-14.134-5.142-20.037-12.771-14.693m23.16.026c-6.194 3.056-7.568 13.386-2.46 18.494 4.609 4.609 16.077 4.164 16.077-.625 0-2.227-.126-2.268-2.75-.899-5.14 2.682-12.25-.003-12.25-4.626 0-1.742.767-1.927 8-1.927 8.899 0 9.168-.269 6.548-6.538-2.185-5.231-7.344-6.751-13.165-3.879M529 222c0 10.333.121 11 2 11s2-.667 2-11-.121-11-2-11-2 .667-2 11m-55.967-6.539c-3.76 4.529-.978 14.539 4.04 14.539 5.112 0 7.889-8.754 4.37-13.777-1.805-2.578-6.547-3.007-8.41-.762m96.622.368c-2.561 2.83-2.094 3.171 4.345 3.171 6.194 0 7.131-.726 4.429-3.429-2.122-2.121-6.744-1.986-8.774.258m-326.234 26.36c-26.268 17.021-45.034 44.344-53.784 78.311-5.377 20.872-6.611 27.647-9.11 50-4.01 35.862-4.714 39.057-11.579 52.523-18.971 37.21-51.009 68.344-87.421 84.954-6.738 3.073-29.528 11.562-33.777 12.58-1.513.363-2.75 1.007-2.75 1.432 0 .826 4.104 12.213 6.491 18.011.792 1.925 3.958 10.7 7.034 19.5 6.418 18.355 10.364 28.662 11.397 29.77.394.423 4.736-.388 9.648-1.803 43.412-12.506 77.275-30.524 103.272-54.948 10.903-10.245 40.549-45.773 51.658-61.911 6.269-9.105 12.802-8.765 34.808 1.814 51.612 24.81 88.391 54.839 113.606 92.755 4.387 6.595 8.139 12.483 8.339 13.083.326.978 8.521-3.581 40.502-22.535 5.36-3.176 10.533-6.041 11.495-6.367 2.759-.932 2.222-2.505-5.788-16.959-38.32-69.152-81.165-111.134-151.874-148.814-14.794-7.884-8.792-34.22 7.754-34.024 2.837.034 11.233.573 18.658 1.199 47.891 4.034 50.918 3.939 73.137-2.301C402.959 343.453 439 328.283 439 325.787c0-.953-6.58-16.74-10.747-25.787-1.394-3.025-4.012-9.1-5.817-13.5-3.838-9.35-2.986-9.142-16.936-4.144-33.385 11.961-72.653 12.848-104 2.349l-7-2.345-2.189-6.474c-1.203-3.561-2.553-9.769-3-13.795-.914-8.246-.182-7.633-13.811-11.557-3.3-.95-10.459-3.934-15.908-6.631-11.749-5.813-10.112-5.64-16.171-1.714" fill-rule="evenodd"/><path fill="#242424" stroke="#242424" d="M213.425 218.561c-6.799 5.234-18.629 17.4-24.736 25.439-2.297 3.025-4.428 5.725-4.733 6-2.607 2.344-14.406 23.893-19.439 35.5-7.557 17.427-14.947 42.587-16.889 57.5-.323 2.475-1.241 8.775-2.04 14-.8 5.225-1.971 15.35-2.602 22.5-1.557 17.63-4.795 26.524-15.062 41.372-22.465 32.489-67.503 62.24-100.924 66.669-2.475.328-7.875 1.208-12 1.956-4.125.747-9.187 1.637-11.25 1.976l-3.75.618v6.905c0 5.475.752 8.934 3.634 16.704 1.998 5.39 4.636 12.5 5.86 15.8 1.225 3.3 5.398 14.775 9.274 25.5 17.509 48.455 26.515 72.604 27.548 73.864 1.313 1.601 7.811 1.073 15.954-1.296 2.877-.837 10.855-2.915 17.73-4.617 60.656-15.014 112.994-45.726 148.036-86.866 3.005-3.528 6.67-7.756 8.144-9.396 1.474-1.639 5.974-7.394 10-12.789 4.026-5.394 8.006-9.828 8.845-9.854 1.515-.046 21.827 11.15 29.475 16.247 9.799 6.53 18.033 12.326 19.472 13.707.86.825 3.58 3.07 6.046 4.988 14.78 11.502 31.573 29.821 42.835 46.726 3.656 5.487 9.311 15.235 12.566 21.66 3.255 6.426 7.323 13.309 9.04 15.294l3.121 3.611 4.46-1.984c2.453-1.091 7.61-3.929 11.46-6.306 3.85-2.377 7.9-4.818 9-5.425 1.1-.606 7.625-4.441 14.5-8.521 6.875-4.08 13.4-7.906 14.5-8.503 4.717-2.56 27.227-15.928 29.63-17.596 2.435-1.691 15.955-9.432 21.975-12.582 6.516-3.411 7.997-5.823 6.382-10.399-1.39-3.94-7.033-16.085-13.689-29.463-4.213-8.467-17.072-31.9-17.835-32.5-.35-.275-1.938-2.75-3.529-5.5-5.287-9.14-23.425-34.185-31.865-44-1.418-1.65-4.264-5.004-6.324-7.453-6.09-7.241-24.922-25.964-36.745-36.532-6.05-5.407-11-10.309-11-10.892 0-.583 2.025-1.418 4.5-1.857 12.847-2.275 30.237-7.489 48.5-14.542 22.332-8.624 62.596-29.918 63.302-33.477.275-1.391-2.284-7.801-12.078-30.247-1.92-4.4-5.315-12.318-7.545-17.595-2.23-5.278-5.579-12.928-7.443-17-1.864-4.073-7.174-16.285-11.8-27.139s-9.055-19.982-9.842-20.284c-.788-.302-5.968 2.065-11.513 5.259-12.74 7.341-19.832 10.484-30.816 13.66-12.08 3.493-35.773 6.71-43.858 5.955-4.57-.427-8.729-.06-14.415 1.272-6.324 1.481-11.932 1.872-26.863 1.871l-18.872-.001.601 6.434c.331 3.539 1.518 9.191 2.639 12.56l2.039 6.126 7.232 2.349c3.978 1.291 9.932 2.976 13.232 3.743 3.3.767 8.025 1.898 10.5 2.512 5.841 1.45 41.107 1.421 47-.038 2.475-.613 7.65-1.781 11.5-2.595 5.677-1.2 28.508-8.225 33.138-10.197 1.359-.578 5.387 7.623 13.817 28.131 2.03 4.937 4.783 11.312 6.118 14.165 1.335 2.854 2.427 5.676 2.427 6.271 0 1.344-21.373 11.548-33.5 15.994-4.95 1.814-10.35 3.873-12 4.574-18.683 7.943-52.49 9.527-93.62 4.386-15.673-1.959-22.208 3.378-22.326 18.233-.069 8.569 1.563 10.86 11.481 16.112 10.442 5.53 32.363 17.965 32.965 18.7.275.336 3.2 2.382 6.5 4.545 35.71 23.415 79.798 71.904 102.276 112.487 1.984 3.58 3.914 6.735 4.29 7.01.855.626 9.937 18.681 9.925 19.73-.005.424-3.043 2.524-6.75 4.669-3.708 2.144-10.791 6.239-15.741 9.099-4.95 2.86-14.12 8.211-20.377 11.892l-11.378 6.691-1.621-2.29c-.891-1.26-3.371-5.182-5.51-8.715-23.741-39.209-68.675-75.254-125.114-100.364-15.909-7.078-18.136-6.183-32.631 13.121-36.024 47.977-57.508 67.494-95.319 86.595-18.1 9.144-49.738 20.612-60.079 21.778-2.818.317-3.783-1.962-17.879-42.206-2.408-6.875-5.534-15.645-6.947-19.488-1.413-3.843-2.249-7.277-1.857-7.632.392-.354 5.437-2.091 11.212-3.86 10.425-3.194 13.195-4.335 30.5-12.573 30.246-14.396 56.334-38.773 75.639-70.677 11.456-18.934 13.927-27.335 17.342-58.962 6.057-56.106 16.564-86.411 38.885-112.153 5.882-6.785 20.461-19.128 25.337-21.453 4.368-2.083 4.25-2.439-2.453-7.364-3.162-2.324-9.169-7.738-13.348-12.031-4.18-4.294-7.813-7.807-8.076-7.807-.262 0-3.143 2.052-6.401 4.561" fill-rule="evenodd"/></svg>